<svg width="48" height="49" viewBox="0 0 48 49" fill="none" xmlns="http://www.w3.org/2000/svg">
<circle cx="24" cy="24.4775" r="24" fill="#050038"/>
<path d="M24 14.7275C18.9563 14.7275 15 17.0338 15 19.9775V28.9775C15 31.9213 18.9563 34.2275 24 34.2275C29.0437 34.2275 33 31.9213 33 28.9775V19.9775C33 17.0338 29.0437 14.7275 24 14.7275ZM31.5 24.4775C31.5 25.3775 30.7594 26.2963 29.475 26.9994C28.0219 27.7963 26.0813 28.2275 24 28.2275C21.9187 28.2275 19.9781 27.7963 18.525 26.9994C17.2406 26.2963 16.5 25.3775 16.5 24.4775V22.9213C18.1031 24.3182 20.8313 25.2275 24 25.2275C27.1687 25.2275 29.8969 24.3182 31.5 22.9213V24.4775ZM29.475 31.4994C28.0219 32.2963 26.0813 32.7275 24 32.7275C21.9187 32.7275 19.9781 32.2963 18.525 31.4994C17.2406 30.7963 16.5 29.8775 16.5 28.9775V27.4213C18.1031 28.8182 20.8313 29.7275 24 29.7275C27.1687 29.7275 29.8969 28.8182 31.5 27.4213V28.9775C31.5 29.8775 30.7594 30.7963 29.475 31.4994Z" fill="white"/>
</svg>
