<svg width="328" height="899" viewBox="0 0 328 899" fill="none" xmlns="http://www.w3.org/2000/svg">
<mask id="mask0_678_1625" style="mask-type:alpha" maskUnits="userSpaceOnUse" x="0" y="0" width="328" height="899">
<rect width="328" height="899" fill="#050038"/>
</mask>
<g mask="url(#mask0_678_1625)">
<path fill-rule="evenodd" clip-rule="evenodd" d="M171.813 -44.6891C171.813 -44.6891 86.5372 12.2981 94.9932 79.5213C98.6605 108.676 115.355 115.276 132.488 122.049C148.854 128.519 165.621 135.147 171.813 161.745C182.589 208.033 141.89 210.998 100.982 213.979C59.9551 216.969 18.7189 219.973 28.9929 266.712C34.4929 291.733 48.2266 300.253 61.9747 308.782C75.6825 317.286 89.4045 325.799 94.9932 350.685C101.682 380.473 89.7418 404.111 77.8757 427.602C65.874 451.361 53.9485 474.969 61.452 504.637C68.5586 532.735 87.3298 536.5 105.695 540.184C124.675 543.99 143.221 547.71 148.01 578.113C154.249 617.728 133.359 632.127 109.929 648.277C91.2139 661.177 70.8776 675.195 61.452 704.073C60.1647 708.018 58.8913 711.857 57.6454 715.614C45.096 753.456 35.3246 782.921 41.9765 826.535C51.6488 889.951 124.206 928.003 124.206 928.003H259.958C259.958 928.003 187.401 889.951 177.729 826.535C171.077 782.921 180.848 753.456 193.397 715.614C194.643 711.857 195.917 708.018 197.204 704.073C206.63 675.195 226.966 661.177 245.681 648.277C269.111 632.127 290.001 617.728 283.762 578.113C278.973 547.71 260.427 543.99 241.447 540.184C223.082 536.5 204.311 532.735 197.204 504.637C189.7 474.969 201.626 451.361 213.628 427.602C225.494 404.111 237.434 380.473 230.745 350.685C225.156 325.799 211.434 317.286 197.727 308.782C183.979 300.253 170.245 291.733 164.745 266.712C154.471 219.973 195.707 216.969 236.734 213.979C277.642 210.998 318.341 208.033 307.565 161.745C301.373 135.147 284.606 128.519 268.24 122.049C251.107 115.276 234.412 108.676 230.745 79.5213C222.289 12.2981 307.565 -44.6891 307.565 -44.6891H171.813Z" fill="#4262FF"/>
</g>
</svg>
