<svg width="28" height="29" viewBox="0 0 28 29" fill="none" xmlns="http://www.w3.org/2000/svg">
<path d="M14.0002 26.1441C7.55666 26.1441 2.3335 20.921 2.3335 14.4775C2.3335 8.03396 7.55666 2.81079 14.0002 2.81079C20.4437 2.81079 25.6668 8.03396 25.6668 14.4775C25.6668 20.921 20.4437 26.1441 14.0002 26.1441ZM14.0002 23.8108C16.4755 23.8108 18.8495 22.8275 20.5998 21.0771C22.3502 19.3268 23.3335 16.9528 23.3335 14.4775C23.3335 12.0021 22.3502 9.62813 20.5998 7.87779C18.8495 6.12746 16.4755 5.14412 14.0002 5.14412C11.5248 5.14412 9.15084 6.12746 7.4005 7.87779C5.65016 9.62813 4.66683 12.0021 4.66683 14.4775C4.66683 16.9528 5.65016 19.3268 7.4005 21.0771C9.15084 22.8275 11.5248 23.8108 14.0002 23.8108ZM12.837 19.1441L7.88683 14.194L9.5365 12.5443L12.837 15.8448L19.4357 9.24496L21.0865 10.8946L12.837 19.1441Z" fill="#4262FF"/>
</svg>
