<svg width="396" height="557" viewBox="0 0 396 557" fill="none" xmlns="http://www.w3.org/2000/svg">
<mask id="mask0_289_2025" style="mask-type:alpha" maskUnits="userSpaceOnUse" x="0" y="0" width="396" height="557">
<rect x="0.147461" y="0.477539" width="395.853" height="556" fill="#050038"/>
</mask>
<g mask="url(#mask0_289_2025)">
<path fill-rule="evenodd" clip-rule="evenodd" d="M239.96 -27.1611C239.96 -27.1611 154.685 8.08348 163.141 49.6587C166.808 67.6899 183.503 71.7715 200.635 75.9603C217.002 79.9618 233.768 84.061 239.96 100.511C250.737 129.139 210.037 130.973 169.13 132.816C128.103 134.665 86.8663 136.523 97.1403 165.43C102.64 180.904 116.374 186.173 130.122 191.448C143.83 196.708 157.552 201.973 163.141 217.364C169.83 235.787 157.889 250.406 146.023 264.934C134.021 279.628 122.096 294.229 129.599 312.578C136.706 329.955 155.477 332.284 173.842 334.562C192.822 336.917 211.369 339.217 216.157 358.02C222.397 382.521 201.507 391.426 178.077 401.414C159.361 409.393 139.025 418.062 129.599 435.922C128.312 438.362 127.039 440.736 125.793 443.06C113.243 466.464 103.472 484.687 110.124 511.66C119.796 550.881 192.354 574.415 192.354 574.415H328.106C328.106 574.415 255.548 550.881 245.876 511.66C239.224 484.687 248.995 466.464 261.545 443.06C262.791 440.736 264.064 438.362 265.351 435.922C274.777 418.062 295.113 409.393 313.829 401.414C337.259 391.426 358.149 382.521 351.909 358.02C347.12 339.217 328.574 336.917 309.594 334.562C291.229 332.284 272.458 329.955 265.351 312.578C257.848 294.229 269.773 279.628 281.775 264.934C293.641 250.406 305.582 235.787 298.893 217.364C293.304 201.973 279.582 196.708 265.874 191.448C252.126 186.173 238.392 180.904 232.892 165.43C222.618 136.523 263.854 134.665 304.882 132.816C345.789 130.973 386.488 129.139 375.712 100.511C369.52 84.061 352.754 79.9618 336.387 75.9603C319.254 71.7715 302.56 67.6899 298.893 49.6587C290.437 8.08348 375.712 -27.1611 375.712 -27.1611H239.96Z" fill="#4262FF"/>
</g>
</svg>
