<svg width="24" height="25" viewBox="0 0 24 25" fill="none" xmlns="http://www.w3.org/2000/svg">
<path d="M3 3.15723H21C21.2652 3.15723 21.5196 3.26258 21.7071 3.45012C21.8946 3.63766 22 3.89201 22 4.15723V20.1572C22 20.4224 21.8946 20.6768 21.7071 20.8643C21.5196 21.0519 21.2652 21.1572 21 21.1572H3C2.73478 21.1572 2.48043 21.0519 2.29289 20.8643C2.10536 20.6768 2 20.4224 2 20.1572V4.15723C2 3.89201 2.10536 3.63766 2.29289 3.45012C2.48043 3.26258 2.73478 3.15723 3 3.15723ZM20 7.39523L12.072 14.4952L4 7.37323V19.1572H20V7.39523ZM4.511 5.15723L12.061 11.8192L19.502 5.15723H4.511Z" fill="#4262FF"/>
</svg>
