<svg width="28" height="29" viewBox="0 0 28 29" fill="none" xmlns="http://www.w3.org/2000/svg">
<path d="M24.5 6.15906H3.5C3.26794 6.15906 3.04538 6.25125 2.88128 6.41534C2.71719 6.57943 2.625 6.80199 2.625 7.03406V21.9091C2.625 22.3732 2.80937 22.8183 3.13756 23.1465C3.46575 23.4747 3.91087 23.6591 4.375 23.6591H23.625C24.0891 23.6591 24.5342 23.4747 24.8624 23.1465C25.1906 22.8183 25.375 22.3732 25.375 21.9091V7.03406C25.375 6.80199 25.2828 6.57943 25.1187 6.41534C24.9546 6.25125 24.7321 6.15906 24.5 6.15906ZM10.7953 14.9091L4.375 20.7934V9.02468L10.7953 14.9091ZM12.0859 16.1012L13.4094 17.3044C13.5707 17.4519 13.7814 17.5338 14 17.5338C14.2186 17.5338 14.4293 17.4519 14.5906 17.3044L15.9141 16.1012L22.2469 21.9091H5.75312L12.0859 16.1012ZM17.2047 14.9091L23.625 9.02468V20.7934L17.2047 14.9091Z" fill="#050038" fill-opacity="0.5"/>
</svg>
