<svg width="117" height="31" viewBox="0 0 117 31" fill="none" xmlns="http://www.w3.org/2000/svg">
<path d="M15.1393 0.220703L0 18.388H13.6254L12.1115 30.4993L27.2508 12.3322H13.6254L15.1393 0.220703Z" fill="#050038"/>
<path d="M48.6849 12.8838V18.4881H40.6014V26.1638H34.25V3.40771H50.3831V9.01184H40.6014V12.8838H48.6849Z" fill="#050038"/>
<path d="M59.2405 3.40771V26.1638H53.3984V3.40771H59.2405Z" fill="#050038"/>
<path d="M68.8793 8.33301C69.785 8.33301 70.668 8.53678 71.5284 8.94435C72.4117 9.32929 73.136 9.82745 73.7022 10.4388V8.84246H79.5443V26.1643H73.7022V23.2775C73.2722 24.2284 72.6155 25.0323 71.7324 25.689C70.8494 26.3456 69.7849 26.6739 68.5398 26.6739C67.249 26.6739 66.0374 26.3456 64.9054 25.689C63.7734 25.0323 62.8448 24.0247 62.1205 22.666C61.4185 21.2847 61.0674 19.5526 61.0674 17.4695C61.0674 15.5221 61.4185 13.8692 62.1205 12.5106C62.8448 11.152 63.796 10.1218 64.9733 9.41985C66.1735 8.69528 67.4753 8.33301 68.8793 8.33301ZM70.1021 14.0391C69.2644 14.0391 68.5624 14.3787 67.9962 15.058C67.4527 15.7373 67.1811 16.5411 67.1811 17.4695C67.1811 18.398 67.464 19.1791 68.0302 19.8129C68.5963 20.447 69.3436 20.7642 70.2719 20.7642C70.7699 20.7642 71.2794 20.6394 71.8003 20.3904C72.3209 20.1188 72.7626 19.7224 73.1247 19.2018C73.5098 18.6583 73.7022 17.9676 73.7022 17.1298V15.4656C73.2042 15.058 72.6381 14.7183 72.004 14.4466C71.3926 14.1749 70.7585 14.0391 70.1021 14.0391Z" fill="#050038"/>
<path d="M88.6065 8.33301C89.7388 8.33301 90.7803 8.50283 91.7312 8.84246C92.7048 9.15947 93.486 9.60102 94.0748 10.1671V14.7523C93.486 14.39 92.818 14.0504 92.0711 13.7334C91.3238 13.3937 90.52 13.2239 89.6593 13.2239C89.1161 13.2239 88.6291 13.3371 88.1991 13.5635C87.7913 13.7673 87.5876 14.0956 87.5876 14.5485C87.5876 14.8655 87.7121 15.1033 87.9611 15.2618C88.2104 15.4203 88.697 15.5901 89.4216 15.7712L90.4744 16.043C93.486 16.8128 94.9918 18.4319 94.9918 20.9C94.9918 22.032 94.6523 23.0395 93.9729 23.9229C93.3162 24.7833 92.4445 25.4623 91.3578 25.9606C90.2934 26.4362 89.1387 26.6739 87.8932 26.6739C86.6027 26.6739 85.4025 26.4928 84.2931 26.1303C83.1834 25.7455 82.2325 25.2812 81.44 24.738V20.1867C82.2551 20.6846 83.1721 21.1037 84.1913 21.4432C85.2327 21.783 86.1611 21.9528 86.9762 21.9528C87.6329 21.9528 88.1085 21.8735 88.4028 21.7151C88.7197 21.5567 88.8781 21.2734 88.8781 20.866C88.8781 20.5488 88.697 20.3112 88.3349 20.1527C87.9724 19.9717 87.4518 19.7676 86.7725 19.5413L85.0404 18.9978C83.7722 18.613 82.8439 18.0129 82.2551 17.1977C81.6663 16.36 81.3721 15.341 81.3721 14.1409C81.3721 12.9409 81.689 11.9106 82.323 11.0502C82.9571 10.1897 83.8175 9.52177 84.9043 9.04626C86.0139 8.57076 87.2478 8.33301 88.6065 8.33301Z" fill="#050038"/>
<path d="M107.043 8.3326C108.809 8.3326 110.246 8.93262 111.356 10.1327C112.488 11.3328 113.054 13.1103 113.054 15.4652V26.1639H107.212L107.178 16.3822C107.178 15.5217 106.94 14.9217 106.465 14.5821C105.989 14.2198 105.457 14.0386 104.869 14.0386C104.235 14.0386 103.702 14.2085 103.272 14.5481C102.842 14.8651 102.469 15.25 102.151 15.7029V26.1639H96.3096V3.40771H102.151V11.0837C102.695 10.3365 103.352 9.69118 104.121 9.14774C104.914 8.6043 105.888 8.3326 107.043 8.3326Z" fill="#050038"/>
<path d="M112.76 3.54053V4.26317H111.89V6.46181H111.064V4.26317H110.194V3.54053H112.76Z" fill="#050038"/>
<path d="M116.15 3.49658V6.47481H115.324V5.0295L114.719 5.70836H114.472L113.867 5.0295V6.47481H113.041V3.49658H113.333L114.596 4.76671L115.858 3.49658H116.15Z" fill="#050038"/>
</svg>
