<svg width="200" height="73" viewBox="0 0 200 73" fill="none" xmlns="http://www.w3.org/2000/svg">
<g opacity="0.4">
<rect width="200" height="72" transform="translate(0 0.477295)" fill="white"/>
<path d="M41.0441 20.144L22.5518 42.335H39.1948L37.3456 57.1286L55.8379 34.9379H39.1948L41.0441 20.144Z" fill="#050038"/>
<path d="M82.0186 35.6121V42.4576H72.1448V51.8334H64.3867V24.0373H84.0929V30.8826H72.1448V35.6121H82.0186Z" fill="#050038"/>
<path d="M94.9123 24.0373V51.8334H87.7764V24.0373H94.9123Z" fill="#050038"/>
<path d="M106.687 30.0529C107.793 30.0529 108.871 30.3018 109.922 30.7997C111.001 31.2698 111.886 31.8783 112.578 32.6251V30.6752H119.714V51.8334H112.578V48.3072C112.052 49.4688 111.25 50.4506 110.172 51.2528C109.093 52.0549 107.793 52.4558 106.272 52.4558C104.695 52.4558 103.215 52.0549 101.833 51.2528C100.45 50.4506 99.3156 49.22 98.4309 47.5604C97.5734 45.8732 97.1445 43.7574 97.1445 41.2129C97.1445 38.8343 97.5734 36.8152 98.4309 35.1558C99.3156 33.4963 100.478 32.2379 101.916 31.3805C103.382 30.4954 104.972 30.0529 106.687 30.0529ZM108.18 37.0227C107.157 37.0227 106.299 37.4376 105.608 38.2673C104.944 39.097 104.612 40.0789 104.612 41.2129C104.612 42.347 104.958 43.3012 105.649 44.0753C106.341 44.8498 107.254 45.2373 108.388 45.2373C108.996 45.2373 109.618 45.0848 110.255 44.7807C110.89 44.4489 111.43 43.9648 111.872 43.3289C112.343 42.665 112.578 41.8213 112.578 40.798V38.7652C111.969 38.2673 111.278 37.8524 110.503 37.5206C109.757 37.1886 108.982 37.0227 108.18 37.0227Z" fill="#050038"/>
<path d="M130.782 30.0529C132.165 30.0529 133.437 30.2603 134.599 30.6752C135.788 31.0624 136.742 31.6018 137.461 32.2932V37.8939C136.742 37.4514 135.926 37.0365 135.014 36.6493C134.101 36.2345 133.119 36.027 132.068 36.027C131.404 36.027 130.81 36.1653 130.284 36.4419C129.786 36.6908 129.537 37.0918 129.537 37.645C129.537 38.0322 129.69 38.3226 129.994 38.5162C130.298 38.7098 130.893 38.9173 131.778 39.1385L133.064 39.4704C136.742 40.4108 138.581 42.3885 138.581 45.4032C138.581 46.7859 138.167 48.0166 137.337 49.0956C136.535 50.1465 135.47 50.976 134.143 51.5846C132.842 52.1655 131.432 52.4558 129.911 52.4558C128.334 52.4558 126.868 52.2346 125.513 51.7919C124.158 51.3219 122.996 50.7548 122.028 50.0912V44.5319C123.024 45.1401 124.144 45.652 125.389 46.0667C126.661 46.4818 127.795 46.6891 128.791 46.6891C129.593 46.6891 130.174 46.5924 130.533 46.3988C130.92 46.2053 131.114 45.8593 131.114 45.3617C131.114 44.9743 130.893 44.684 130.45 44.4904C130.007 44.2692 129.372 44.02 128.542 43.7436L126.426 43.0797C124.877 42.6097 123.743 41.8766 123.024 40.881C122.305 39.8576 121.945 38.613 121.945 37.1472C121.945 35.6813 122.332 34.4229 123.107 33.3719C123.881 32.3209 124.932 31.505 126.26 30.9241C127.615 30.3433 129.122 30.0529 130.782 30.0529Z" fill="#050038"/>
<path d="M153.301 30.0529C155.459 30.0529 157.215 30.7858 158.57 32.2517C159.953 33.7176 160.644 35.8887 160.644 38.7652V51.8334H153.509L153.467 39.8853C153.467 38.8343 153.177 38.1014 152.596 37.6865C152.015 37.244 151.365 37.0227 150.646 37.0227C149.872 37.0227 149.222 37.2301 148.696 37.645C148.171 38.0322 147.714 38.5024 147.327 39.0556V51.8334H140.191V24.0373H147.327V33.4133C147.991 32.5006 148.793 31.7124 149.733 31.0486C150.701 30.3848 151.891 30.0529 153.301 30.0529Z" fill="#050038"/>
<path d="M160.285 24.1992V25.0819H159.223V27.7675H158.214V25.0819H157.151V24.1992H160.285Z" fill="#050038"/>
<path d="M164.426 24.1457V27.7835H163.418V26.0181L162.679 26.8473H162.377L161.638 26.0181V27.7835H160.629V24.1457H160.985L162.528 25.6971L164.07 24.1457H164.426Z" fill="#050038"/>
</g>
</svg>
