<svg width="200" height="73" viewBox="0 0 200 73" fill="none" xmlns="http://www.w3.org/2000/svg">
<g opacity="0.4" clip-path="url(#clip0_280_1216)">
<rect width="200" height="72" transform="translate(0 0.477295)" fill="white"/>
<path d="M82.3594 48.0589C81.8631 47.6335 81.5783 47.1877 81.552 46.7194L82.3594 48.0589ZM82.3594 48.0589L82.3619 48.061C82.9015 48.5027 83.6618 48.7133 84.6226 48.7133H86.7254H86.8659V48.5727V48.2971V48.1565H86.7254H85.6694L85.3028 48.0898L85.2962 48.0885L85.2891 48.0881C85.0705 48.0698 84.8274 47.9217 84.563 47.5927C84.3345 47.2574 84.2114 46.774 84.2114 46.1251V35.3351C84.2114 34.1845 83.9174 33.2318 83.3186 32.489L83.3169 32.4867C82.9249 32.0212 82.3102 31.6771 81.4919 31.443C80.6916 31.1844 79.6532 31.0577 78.3829 31.0577C77.0834 31.0577 75.8919 31.5075 74.8122 32.3993C73.9489 33.0939 73.2996 33.8382 72.87 34.6332V31.3362V31.1956H72.7291H70.3161H70.1756V31.3362V48.5727V48.7133H70.3161H72.7291H72.87V48.5727V36.3348C72.87 35.4739 73.4214 34.4744 74.5857 33.3326L74.587 33.3316C75.7364 32.1823 77.0229 31.6147 78.4517 31.6147C79.1486 31.6147 79.7228 31.7269 80.1807 31.9443C81.0499 32.4125 81.5174 33.5012 81.5174 35.3006V46.1251V46.1293V46.1335L81.552 46.719L82.3594 48.0589ZM68.0024 26.0206L68.1321 26.0704L68.1834 25.9416L68.3214 25.5969L68.3769 25.4584L68.2355 25.4113C65.878 24.6255 63.5534 24.232 61.2617 24.232C58.9901 24.232 57.2607 24.7648 56.0984 25.8553C54.9407 26.9188 54.3643 28.3137 54.3643 30.0262C54.3643 32.1869 55.2606 33.8629 57.0467 35.0384C57.8349 35.5714 58.7032 36.0575 59.6511 36.4969L59.6541 36.498C60.5966 36.9119 61.5278 37.3144 62.4478 37.7052L62.4491 37.7058C63.3857 38.0943 64.2419 38.5166 65.0168 38.9726C66.7262 39.9846 67.5678 41.3777 67.5678 43.1604C67.5678 44.7935 66.9226 46.0234 65.6319 46.8691C64.3491 47.7019 62.791 48.1219 60.9515 48.1219C59.702 48.1219 58.4751 47.9405 57.2707 47.5768C56.0875 47.1898 55.1271 46.7027 54.3852 46.118L54.2622 46.0213L54.1788 46.1543L54.0065 46.43L53.936 46.543L54.0449 46.6197C56.0717 48.0406 58.5143 48.7479 61.3652 48.7479C62.892 48.7479 64.2282 48.5744 65.3708 48.2245L65.3725 48.2241C66.5498 47.8475 67.5495 47.1406 68.3698 46.1093C69.1959 45.0708 69.6071 43.821 69.6071 42.3676C69.6071 40.9058 69.3636 39.6978 68.8673 38.7521C68.3752 37.7917 67.7284 37.0374 66.9251 36.4941C66.1361 35.9604 65.267 35.4853 64.3174 35.0685C63.3724 34.6535 62.427 34.2846 61.4815 33.9617C60.5674 33.6188 59.7229 33.2535 58.9472 32.8658C57.2377 31.9657 56.4037 30.7102 56.4037 29.0954C56.4037 27.7573 56.9029 26.72 57.8992 25.9671C58.9005 25.2105 60.303 24.8234 62.1238 24.8234C63.9646 24.8234 65.9243 25.2212 68.0024 26.0206ZM87.6024 33.4775L87.602 33.4783C86.0064 35.0973 85.2173 37.3662 85.2173 40.2648C85.2173 43.1608 85.9822 45.3315 87.5386 46.7465C89.0858 48.1528 91.0863 48.8513 93.5281 48.8513C95.9974 48.8513 98.0342 48.046 99.6261 46.4312C101.245 44.8123 102.046 42.5432 102.046 39.6443C102.046 36.7482 101.281 34.5775 99.7245 33.1626C98.1768 31.7559 96.1646 31.0577 93.7003 31.0577C91.2532 31.0577 89.2167 31.8632 87.6024 33.4775ZM89.5383 33.9024L89.5391 33.9016C90.6651 32.3702 92.0726 31.6147 93.7692 31.6147C95.4744 31.6147 96.8352 32.2626 97.8649 33.5609C98.8933 34.8576 99.42 36.8766 99.42 39.6443C99.42 42.384 98.8491 44.5112 97.7244 46.0413C96.5988 47.5497 95.1908 48.2946 93.4935 48.2946C91.7886 48.2946 90.4274 47.6465 89.3977 46.3482C88.3693 45.0512 87.8426 43.0436 87.8426 40.2992C87.8426 37.5356 88.4139 35.4092 89.5383 33.9024ZM125.533 31.4436L125.431 31.5463L125.537 31.6456C125.868 31.9559 126.044 32.4191 126.044 33.0598C126.044 33.7068 125.91 34.2563 125.648 34.7137L125.646 34.719L125.643 34.7246L120.787 45.2414L115.63 31.2875L115.596 31.1956H115.498H113.085H112.883L112.953 31.3846L114.208 34.8119L109.41 45.241L104.254 31.2875L104.219 31.1956H104.121H101.708H101.506L101.577 31.3852L107.989 48.6219L108.023 48.7133H108.12H108.465H108.556L108.593 48.6311L114.519 35.5999L119.365 48.6219L119.399 48.7133H119.497H119.841H119.932L119.969 48.6311L126.244 34.8418L126.245 34.8389C126.527 34.1801 126.67 33.5293 126.67 32.8875C126.67 32.7157 126.646 32.5345 126.599 32.3443C126.57 32.1327 126.466 31.9084 126.302 31.6733C126.232 31.5568 126.166 31.4597 126.103 31.3841C126.041 31.3097 125.974 31.2463 125.902 31.2104L125.812 31.1651L125.74 31.2368L125.533 31.4436Z" fill="#050038" stroke="#050038" stroke-width="0.281209"/>
<path d="M132.009 24.6907C132.656 23.699 133.706 22.9308 135.162 22.8628L134.858 46.3649V46.3666C134.858 46.5792 134.924 46.8078 135.045 47.0501C135.611 48.1823 136.961 48.7132 138.997 48.7132H140.066H140.207V48.5727V48.297V48.1565H140.066H139.01L138.643 48.0898L138.637 48.0885L138.63 48.0881C138.411 48.0697 138.168 47.9217 137.904 47.5927C137.675 47.2574 137.552 46.774 137.552 46.1251V22.7523V22.614L137.414 22.6117L135.307 22.5772L135.166 22.575L135.166 22.5791C132.807 22.6216 131.062 23.1763 129.966 24.2726C128.846 25.3692 128.304 27.1971 128.304 29.7159V31.1956H127.721H127.58V31.3362V31.8932V32.0338H127.721H128.304V48.5727V48.7132H128.445H130.858H130.998V48.5727V32.0338H133.581H133.721V31.8932V31.3362V31.1956H133.581H130.998V29.7159C130.998 27.3553 131.343 25.6901 132.009 24.6919L132.009 24.6907ZM150.366 40.1461C149.896 40.1084 149.38 40.0897 148.818 40.0897C148.193 40.0897 147.511 40.1243 146.773 40.1935C145.286 40.2858 144.056 40.459 143.085 40.7148C142.116 40.9702 141.392 41.3112 140.93 41.7485C140.486 42.1691 140.2 42.5702 140.098 42.9519C140.003 43.3063 139.955 43.6404 139.955 43.9536C139.955 44.2367 139.979 44.5199 140.026 44.8027C140.225 46.1376 140.747 47.156 141.603 47.8383C142.457 48.5193 143.627 48.8513 145.094 48.8513C146.355 48.8513 147.452 48.5915 148.379 48.066C149.17 47.6173 149.832 46.9784 150.366 46.1526V46.3666C150.366 46.7961 150.669 47.2678 151.2 47.7762C151.818 48.4159 152.937 48.7132 154.506 48.7132H155.574H155.715V48.5727V48.297V48.1565H155.574H154.518L154.152 48.0898L154.145 48.0885L154.138 48.0881C153.919 48.0697 153.677 47.9217 153.412 47.5927C153.183 47.2574 153.06 46.774 153.06 46.1251V34.5767C153.06 33.7995 152.744 33.0665 152.129 32.3802C151.725 31.9279 151.117 31.5984 150.32 31.3815C149.522 31.1645 148.526 31.0577 147.335 31.0577C145.199 31.0577 143.099 31.5338 141.037 32.484L140.897 32.5482L140.974 32.6814L141.111 32.9227L141.181 33.0443L141.303 32.9754C141.815 32.6857 142.629 32.3906 143.752 32.0926L143.753 32.0921C144.895 31.7725 145.881 31.6147 146.715 31.6147C147.554 31.6147 148.223 31.7284 148.727 31.9477V31.9478L148.732 31.9498C149.248 32.1517 149.586 32.3911 149.771 32.6573C149.971 32.9465 150.126 33.2458 150.237 33.5553L150.239 33.5612L150.241 33.5669C150.373 33.8513 150.406 34.0702 150.37 34.2342C150.346 34.3289 150.332 34.4133 150.332 34.4818C150.332 34.5163 150.335 34.5552 150.349 34.5924C150.353 34.6044 150.359 34.6169 150.366 34.6293V40.1461ZM142.718 44.7689L142.718 44.7668C142.695 44.5403 142.684 44.3385 142.684 44.1604C142.684 43.1737 142.942 42.4184 143.44 41.8768C143.682 41.6136 144.074 41.3821 144.632 41.1906C145.188 40.9997 145.898 40.8519 146.765 40.7492C147.38 40.6808 147.996 40.6467 148.611 40.6467C149.206 40.6467 149.791 40.6664 150.366 40.706V44.7401C150.3 45.4653 149.805 46.2481 148.829 47.0872C147.889 47.8938 146.829 48.2945 145.646 48.2945C144.761 48.2945 144.088 48.003 143.608 47.4308C143.123 46.8532 142.82 45.9725 142.718 44.7689ZM158.646 22.7178V22.5772H158.505H156.092H155.952V22.7178V48.5727V48.7132H156.092H158.505H158.646V48.5727V40.3174L159.422 39.4259L165.697 48.6519L165.739 48.7132H165.814H168.227H168.492L168.343 48.4939L160.993 37.6906L166.54 31.4294L166.747 31.1956H166.434H166.09H166.027L165.984 31.2429L158.646 39.5152V22.7178ZM181.749 47.3453L181.695 47.2211L181.569 47.2694C179.795 47.9517 177.767 48.2945 175.483 48.2945C173.897 48.2945 172.617 47.6498 171.631 46.3511C170.67 45.0541 170.177 43 170.177 40.1613C170.177 39.5444 170.207 38.9478 170.266 38.3715H182.447H182.587V38.2308V38.2302V38.2295V38.2288V38.2282V38.2274V38.2268V38.2261V38.2254V38.2248V38.2241V38.2234V38.2227V38.2221V38.2214V38.2207V38.2201V38.2194V38.2187V38.218V38.2174V38.2167V38.216V38.2154V38.2147V38.214V38.2133V38.2126V38.212V38.2113V38.2106V38.21V38.2093V38.2086V38.2079V38.2073V38.2066V38.2059V38.2053V38.2046V38.2039V38.2032V38.2026V38.2019V38.2012V38.2005V38.1999V38.1992V38.1985V38.1978V38.1972V38.1965V38.1958V38.1952V38.1945V38.1938V38.1931V38.1925V38.1918V38.1911V38.1904V38.1897V38.1891V38.1884V38.1877V38.1871V38.1864V38.1857V38.185V38.1844V38.1837V38.183V38.1824V38.1817V38.181V38.1803V38.1797V38.179V38.1783V38.1777V38.177V38.1763V38.1756V38.1749V38.1743V38.1736V38.1729V38.1723V38.1716V38.1709V38.1702V38.1696V38.1689V38.1682V38.1676V38.1669V38.1662V38.1655V38.1649V38.1642V38.1635V38.1628V38.1621V38.1615V38.1608V38.1601V38.1595V38.1588V38.1581V38.1574V38.1568V38.1561V38.1554V38.1548V38.1541V38.1534V38.1527V38.152V38.1514V38.1507V38.15V38.1494V38.1487V38.148V38.1473V38.1467V38.146V38.1453V38.1447V38.144V38.1433V38.1426V38.142V38.1413V38.1406V38.14V38.1392V38.1386V38.1379V38.1372V38.1366V38.1359V38.1352V38.1345V38.1339V38.1332V38.1325V38.1319V38.1312V38.1305V38.1298V38.1292V38.1285V38.1278V38.1271V38.1265V38.1258V38.1251V38.1244V38.1238V38.1231V38.1224V38.1218V38.1211V38.1204V38.1197V38.1191V38.1184V38.1177V38.1171V38.1164V38.1157V38.115V38.1143V38.1137V38.113V38.1123V38.1117V38.111V38.1103V38.1096V38.109V38.1083V38.1076V38.107V38.1063V38.1056V38.1049V38.1043V38.1036V38.1029V38.1023V38.1015V38.1009V38.1002V38.0995V38.0989V38.0982V38.0975V38.0968V38.0962V38.0955V38.0948V38.0942V38.0935V38.0928V38.0921V38.0914V38.0908V38.0901V38.0894V38.0888V38.0881V38.0874V38.0867V38.0861V38.0854V38.0847V38.0841V38.0834V38.0827V38.082V38.0814V38.0807V38.08V38.0794V38.0786V38.078V38.0773V38.0766V38.076V38.0753V38.0746V38.0739V38.0733V38.0726V38.0719V38.0713V38.0706V38.0699V38.0692V38.0686V38.0679V38.0672V38.0666V38.0659V38.0652V38.0645V38.0638V38.0632V38.0625V38.0618V38.0612V38.0605V38.0598V38.0591V38.0585V38.0578V38.0571V38.0565V38.0558V38.0551V38.0544V38.0537V38.0531V38.0524V38.0517V38.0511V38.0504V38.0497V38.049V38.0484V38.0477V38.047V38.0463V38.0457V38.045V38.0443V38.0437V38.043V38.0423V38.0416V38.0409V38.0403V38.0396V38.0389V38.0383V38.0376V38.0369V38.0362V38.0356V38.0349V38.0342V38.0336V38.0329V38.0322V38.0315V38.0309V38.0302V38.0295V38.0289V38.0282V38.0275V38.0268V38.0261V38.0255V38.0248V38.0241V38.0235V38.0228V38.0221V38.0214V38.0208V38.0201V38.0194V38.0188V38.0181V38.0174V38.0167V38.016V38.0154V38.0147V38.014V38.0133V38.0127V38.012V38.0113V38.0107V38.01V38.0093V38.0086V38.008V38.0073V38.0066V38.006V38.0053V38.0046V38.0039V38.0032V38.0026V38.0019V38.0012V38.0006V37.9999V37.9992V37.9985V37.9979V37.9972V37.9965V37.9959V37.9952V37.9945V37.9938V37.9932V37.9925V37.9918V37.9912V37.9904V37.9898V37.9891V37.9884V37.9878V37.9871V37.9864V37.9857V37.9851V37.9844V37.9837V37.9831V37.9824V37.9817V37.981V37.9804V37.9797V37.979V37.9783V37.9777V37.977V37.9763V37.9756V37.975V37.9743V37.9736V37.973V37.9723V37.9716V37.9709V37.9703V37.9696V37.9689V37.9683V37.9676V37.9669V37.9662V37.9655V37.9649V37.9642V37.9635V37.9629V37.9622V37.9615V37.9608V37.9602V37.9595V37.9588V37.9581V37.9575V37.9568V37.9561V37.9555V37.9548V37.9541V37.9535V37.9527V37.9521V37.9514V37.9507V37.9501V37.9494V37.9487V37.948V37.9474V37.9467V37.946V37.9454V37.9447V37.944V37.9433V37.9427V37.942V37.9413V37.9407V37.94V37.9393V37.9386V37.9379V37.9373V37.9366V37.9359V37.9353V37.9346V37.9339V37.9332V37.9326V37.9319V37.9312V37.9306V37.9298V37.9292V37.9285V37.9278V37.9272V37.9265V37.9258V37.9251V37.9245V37.9238V37.9231V37.9225V37.9218V37.9211V37.9204V37.9198V37.9191V37.9184V37.9178V37.9171V37.9164V37.9157V37.915V37.9144V37.9137V37.913V37.9124V37.9117V37.911V37.9103V37.9097V37.909V37.9083V37.9077V37.907V37.9063V37.9056V37.905V37.9043V37.9036V37.903V37.9022V37.9016V37.9009V37.9002V37.8996V37.8989V37.8982V37.8975V37.8969V37.8962V37.8955V37.8949V37.8942V37.8935V37.8928V37.8921V37.8915V37.8908V37.8901V37.8895V37.8888V37.8881V37.8874V37.8868V37.8861C182.587 35.6518 181.935 33.9418 180.609 32.7817C179.293 31.6308 177.674 31.0577 175.759 31.0577C173.379 31.0577 171.411 31.8642 169.866 33.4797C168.317 35.099 167.551 37.3673 167.551 40.2648C167.551 43.1591 168.281 45.329 169.767 46.744C171.245 48.1519 173.155 48.8513 175.483 48.8513C177.819 48.8513 179.916 48.493 181.774 47.7732L181.909 47.7207L181.852 47.5868L181.749 47.3453ZM178.716 33.1465C179.498 34.1459 179.92 35.6939 179.96 37.8145H170.336C170.621 35.8875 171.249 34.3836 172.21 33.2912C173.222 32.1663 174.358 31.6147 175.621 31.6147C176.886 31.6147 177.915 32.1224 178.716 33.1465Z" fill="#050038" stroke="#050038" stroke-width="0.281209"/>
<path d="M185.628 22.356V23.2667H184.593V26.0376H183.61V23.2667H182.574V22.356H185.628Z" fill="#050038"/>
<path d="M189.663 22.3008V26.0542H188.68V24.2327L187.96 25.0883H187.666L186.946 24.2327V26.0542H185.963V22.3008H186.31L187.813 23.9015L189.316 22.3008H189.663Z" fill="#050038"/>
<path fill-rule="evenodd" clip-rule="evenodd" d="M27.2188 42.5762L27.2038 54.4129L29.706 54.4163L29.7211 42.5242L34.2857 53.5055L36.5962 52.545L32.063 41.6392L40.4033 50.0011L42.1749 48.2337L33.7988 39.8362L44.7539 44.3827L45.7126 42.0715L34.7565 37.5245H46.6189V35.0223H34.785L45.7231 30.5049L44.7676 28.1921L33.8765 32.6902L42.2512 24.401L40.4913 22.6226L32.0124 31.0146L36.5816 19.9946L34.27 19.0362L29.737 29.9693L29.752 18.1338L27.2498 18.1306L27.2347 30.0237L22.6696 19.0416L20.3591 20.002L24.8919 30.9067L16.5521 22.5457L14.7805 24.3128L23.1569 32.7105L12.2017 28.1639L11.2426 30.475L22.1994 35.0223H10.3364V37.5245H22.1712L11.2328 42.0421L12.1879 44.3548L23.0787 39.857L14.704 48.1461L16.4643 49.9243L24.9427 41.5327L20.3739 52.5521L22.6853 53.5105L27.2188 42.5762Z" fill="#050038"/>
</g>
<defs>
<clipPath id="clip0_280_1216">
<rect width="200" height="72" fill="white" transform="translate(0 0.477295)"/>
</clipPath>
</defs>
</svg>
