<svg width="200" height="73" viewBox="0 0 200 73" fill="none" xmlns="http://www.w3.org/2000/svg">
<g opacity="0.4" clip-path="url(#clip0_280_1234)">
<rect width="200" height="72" transform="translate(0 0.477295)" fill="white"/>
<path d="M86.9906 27.9095V51.0548H81.3526V41.5263H72.5823V51.0548H66.9443V27.9095H72.5823V36.9764H81.3526V27.9095H86.9906Z" fill="#050038"/>
<path d="M92.5778 30.745C91.5886 30.745 90.7754 30.4592 90.1382 29.8878C89.5226 29.2943 89.2148 28.5689 89.2148 27.7117C89.2148 26.8325 89.5226 26.1071 90.1382 25.5356C90.7754 24.9422 91.5886 24.6454 92.5778 24.6454C93.545 24.6454 94.3365 24.9422 94.9516 25.5356C95.5893 26.1071 95.9079 26.8325 95.9079 27.7117C95.9079 28.5689 95.5893 29.2943 94.9516 29.8878C94.3365 30.4592 93.545 30.745 92.5778 30.745ZM95.3804 32.6573V51.0548H89.7424V32.6573H95.3804Z" fill="#050038"/>
<path d="M108.4 46.2743V51.0548H105.532C103.488 51.0548 101.894 50.5602 100.751 49.5714C99.6083 48.5601 99.0369 46.9228 99.0369 44.6587V37.3391H96.7949V32.6573H99.0369V28.1732H104.675V32.6573H108.367V37.3391H104.675V44.7245C104.675 45.2742 104.807 45.6696 105.07 45.9114C105.334 46.1533 105.774 46.2743 106.389 46.2743H108.4Z" fill="#050038"/>
<path d="M127.565 41.5592C127.565 42.0868 127.532 42.6365 127.466 43.2078H114.707C114.795 44.3509 115.157 45.23 115.795 45.8456C116.454 46.439 117.256 46.736 118.201 46.736C119.608 46.736 120.586 46.1421 121.136 44.9552H127.136C126.829 46.1642 126.268 47.2523 125.455 48.2194C124.664 49.1865 123.664 49.9451 122.455 50.4943C121.246 51.044 119.894 51.3188 118.399 51.3188C116.597 51.3188 114.992 50.9339 113.586 50.1649C112.179 49.3954 111.08 48.2965 110.288 46.8677C109.497 45.439 109.102 43.7683 109.102 41.8562C109.102 39.9436 109.486 38.2733 110.256 36.8446C111.047 35.4158 112.146 34.3168 113.553 33.5475C114.959 32.7782 116.575 32.3936 118.399 32.3936C120.18 32.3936 121.762 32.7672 123.147 33.5146C124.532 34.2619 125.609 35.3279 126.378 36.7127C127.169 38.0974 127.565 39.713 127.565 41.5592ZM121.795 40.0758C121.795 39.1086 121.466 38.3392 120.806 37.7677C120.147 37.1963 119.322 36.9105 118.334 36.9105C117.388 36.9105 116.586 37.1853 115.926 37.7348C115.289 38.2843 114.893 39.0646 114.74 40.0758H121.795Z" fill="#050038"/>
<path d="M128.1 41.8562C128.1 39.9436 128.484 38.2733 129.254 36.8446C130.045 35.4158 131.133 34.3168 132.518 33.5475C133.924 32.7782 135.529 32.3936 137.331 32.3936C139.639 32.3936 141.562 32.998 143.101 34.2069C144.662 35.4158 145.684 37.1193 146.167 39.3174H140.167C139.661 37.9106 138.683 37.2072 137.232 37.2072C136.199 37.2072 135.375 37.6139 134.76 38.4272C134.144 39.2184 133.836 40.3615 133.836 41.8562C133.836 43.3508 134.144 44.5048 134.76 45.318C135.375 46.1091 136.199 46.5049 137.232 46.5049C138.683 46.5049 139.661 45.8018 140.167 44.3947H146.167C145.684 46.5491 144.662 48.2415 143.101 49.4722C141.54 50.7033 139.617 51.3188 137.331 51.3188C135.529 51.3188 133.924 50.9339 132.518 50.1649C131.133 49.3954 130.045 48.2965 129.254 46.8677C128.484 45.439 128.1 43.7683 128.1 41.8562Z" fill="#050038"/>
<path d="M159.173 32.4595C161.283 32.4595 162.976 33.1629 164.251 34.5696C165.525 35.9543 166.163 37.8666 166.163 40.3064V51.0548H160.558V41.0646C160.558 39.8339 160.239 38.8778 159.602 38.1964C158.964 37.515 158.107 37.1743 157.03 37.1743C155.953 37.1743 155.096 37.515 154.458 38.1964C153.821 38.8778 153.502 39.8339 153.502 41.0646V51.0548H147.864V26.6566H153.502V35.1301C154.074 34.3168 154.854 33.6684 155.843 33.1848C156.832 32.7012 157.942 32.4595 159.173 32.4595Z" fill="#050038"/>
<path d="M37.752 38.9565V18.9429H44.4246V29.2308C45.5892 28.7813 46.8548 28.5348 48.1779 28.5348C53.936 28.5348 58.6038 33.2027 58.6038 38.9608V51.0548H51.9313V38.9608C51.9313 36.8879 50.2508 35.2074 48.1779 35.2074C46.1059 35.2074 44.426 36.8864 44.4246 38.958C44.4246 38.9589 44.4246 38.9599 44.4246 38.9608V51.0548H37.752V38.9608C37.752 38.9594 37.752 38.9579 37.752 38.9565Z" fill="#050038"/>
<path d="M51.9307 25.6155V18.9429H58.6031V25.6155H51.9307Z" fill="#050038"/>
</g>
<defs>
<clipPath id="clip0_280_1234">
<rect width="200" height="72" fill="white" transform="translate(0 0.477295)"/>
</clipPath>
</defs>
</svg>
