<svg width="200" height="73" viewBox="0 0 200 73" fill="none" xmlns="http://www.w3.org/2000/svg">
<g opacity="0.4" clip-path="url(#clip0_280_1223)">
<rect width="200" height="72" transform="translate(0 0.477295)" fill="white"/>
<path d="M39.8497 57.1841H26.3926L39.8497 36.8341H53.3071L39.8497 57.1841Z" fill="#050038"/>
<path d="M34.9265 15.8279H48.7119L34.9265 36.8341H21.1411L34.9265 15.8279Z" fill="#050038"/>
<path d="M80.7602 33.531C80.7602 34.7788 80.4593 35.9489 79.8575 37.041C79.2782 38.1328 78.3534 39.013 77.0832 39.6818C75.8352 40.3501 74.2531 40.6845 72.3366 40.6845H68.4253V49.643H63.7456V26.3107H72.3366C74.1416 26.3107 75.6792 26.6226 76.9493 27.2466C78.2199 27.8706 79.1667 28.7286 79.7909 29.8206C80.4372 30.9125 80.7602 32.1493 80.7602 33.531ZM72.1357 36.9071C73.4283 36.9071 74.3866 36.6176 75.0108 36.0379C75.6347 35.4365 75.9466 34.6008 75.9466 33.531C75.9466 31.2579 74.6764 30.1214 72.1357 30.1214H68.4253V36.9071H72.1357Z" fill="#050038"/>
<path d="M87.4258 33.999C88.0276 33.0185 88.8074 32.2496 89.7656 31.6925C90.7463 31.1354 91.8605 30.8568 93.1086 30.8568V35.7705H91.8715C90.4009 35.7705 89.2867 36.1159 88.529 36.8071C87.7936 37.4979 87.4258 38.7011 87.4258 40.4171V49.643H82.7461V31.1243H87.4258V33.999Z" fill="#050038"/>
<path d="M103.147 49.9439C101.364 49.9439 99.7592 49.554 98.3331 48.7742C96.9069 47.9719 95.7813 46.8463 94.957 45.3977C94.1547 43.9491 93.7534 42.278 93.7534 40.3836C93.7534 38.4896 94.1658 36.8181 94.9905 35.3696C95.8373 33.921 96.9849 32.8068 98.4335 32.0268C99.8821 31.2245 101.498 30.8234 103.281 30.8234C105.063 30.8234 106.679 31.2245 108.127 32.0268C109.576 32.8068 110.712 33.921 111.537 35.3696C112.384 36.8181 112.807 38.4896 112.807 40.3836C112.807 42.278 112.373 43.9491 111.504 45.3977C110.657 46.8463 109.498 47.9719 108.027 48.7742C106.579 49.554 104.952 49.9439 103.147 49.9439ZM103.147 45.8656C103.993 45.8656 104.785 45.6651 105.52 45.2642C106.278 44.8408 106.88 44.2166 107.325 43.3922C107.771 42.5675 107.994 41.5648 107.994 40.3836C107.994 38.6231 107.526 37.275 106.59 36.3388C105.676 35.3806 104.551 34.9017 103.214 34.9017C101.877 34.9017 100.751 35.3806 99.8376 36.3388C98.9459 37.275 98.5005 38.6231 98.5005 40.3836C98.5005 42.1441 98.9349 43.5037 99.8041 44.4619C100.695 45.3977 101.81 45.8656 103.147 45.8656Z" fill="#050038"/>
<path d="M119.583 45.9326H124.608V49.643H114.903V23.4359H119.583V45.9326Z" fill="#050038"/>
<path d="M128.239 28.918C127.415 28.918 126.723 28.6618 126.167 28.1492C125.632 27.6144 125.364 26.9569 125.364 26.177C125.364 25.397 125.632 24.7507 126.167 24.2382C126.723 23.7033 127.415 23.4359 128.239 23.4359C129.064 23.4359 129.743 23.7033 130.278 24.2382C130.835 24.7507 131.114 25.397 131.114 26.177C131.114 26.9569 130.835 27.6144 130.278 28.1492C129.743 28.6618 129.064 28.918 128.239 28.918ZM130.545 31.1242V49.643H125.866V31.1242H130.545Z" fill="#050038"/>
<path d="M144.095 30.8568C146.3 30.8568 148.083 31.5588 149.443 32.9628C150.802 34.3444 151.482 36.2833 151.482 38.7791V49.643H146.802V39.4144C146.802 37.9434 146.434 36.8182 145.699 36.0379C144.963 35.2357 143.961 34.8347 142.69 34.8347C141.398 34.8347 140.373 35.2357 139.615 36.0379C138.88 36.8182 138.512 37.9434 138.512 39.4144V49.643H133.832V31.1243H138.512V33.4308C139.136 32.6285 139.927 32.0045 140.885 31.5588C141.866 31.0908 142.935 30.8568 144.095 30.8568Z" fill="#050038"/>
<path d="M171.81 39.9827C171.81 40.6511 171.765 41.2529 171.676 41.7877H158.138C158.249 43.1248 158.717 44.1721 159.542 44.9298C160.367 45.6876 161.38 46.0665 162.584 46.0665C164.322 46.0665 165.559 45.3197 166.294 43.8267H171.342C170.807 45.6096 169.782 47.0802 168.266 48.2393C166.751 49.3756 164.89 49.9439 162.684 49.9439C160.901 49.9439 159.297 49.554 157.871 48.7742C156.467 47.9719 155.363 46.8463 154.561 45.3977C153.781 43.9491 153.391 42.278 153.391 40.3836C153.391 38.4672 153.781 36.7847 154.561 35.3361C155.341 33.8876 156.433 32.7733 157.837 31.9934C159.241 31.2134 160.857 30.8234 162.684 30.8234C164.444 30.8234 166.016 31.2022 167.398 31.9599C168.801 32.7176 169.882 33.7984 170.64 35.2026C171.42 36.5842 171.81 38.1773 171.81 39.9827ZM166.963 38.6456C166.941 37.442 166.506 36.4838 165.659 35.7705C164.812 35.0352 163.776 34.6677 162.55 34.6677C161.392 34.6677 160.411 35.0242 159.609 35.7374C158.829 36.4282 158.35 37.3975 158.171 38.6456H166.963Z" fill="#050038"/>
</g>
<defs>
<clipPath id="clip0_280_1223">
<rect width="200" height="72" fill="white" transform="translate(0 0.477295)"/>
</clipPath>
</defs>
</svg>
