<svg width="48" height="49" viewBox="0 0 48 49" fill="none" xmlns="http://www.w3.org/2000/svg">
<circle cx="24" cy="24.4775" r="24" fill="#A6C03D"/>
<path d="M34.3782 19.3683C34.1637 19.1892 33.9032 19.0741 33.6263 19.0359C33.3495 18.9978 33.0675 19.0383 32.8126 19.1527L28.0688 21.2621L25.3126 16.2933C25.1809 16.0613 24.99 15.8684 24.7594 15.7342C24.5289 15.6 24.2669 15.5293 24.0001 15.5293C23.7333 15.5293 23.4713 15.6 23.2408 15.7342C23.0102 15.8684 22.8193 16.0613 22.6876 16.2933L19.9313 21.2621L15.1876 19.1527C14.9321 19.0384 14.6498 18.9979 14.3725 19.0357C14.0952 19.0735 13.8341 19.1882 13.6185 19.3667C13.403 19.5451 13.2417 19.7804 13.1528 20.0457C13.064 20.3111 13.0511 20.596 13.1157 20.8683L15.497 31.0214C15.5425 31.218 15.6275 31.4033 15.7467 31.566C15.866 31.7288 16.017 31.8657 16.1907 31.9683C16.4259 32.1091 16.6948 32.1836 16.9688 32.1839C17.1021 32.1837 17.2346 32.1648 17.3626 32.1277C21.7031 30.9277 26.2878 30.9277 30.6282 32.1277C31.0245 32.2319 31.446 32.1746 31.8001 31.9683C31.9749 31.867 32.1267 31.7305 32.2461 31.5675C32.3655 31.4046 32.4499 31.2186 32.4938 31.0214L34.8845 20.8683C34.9484 20.596 34.9348 20.3112 34.8454 20.0461C34.7559 19.781 34.5941 19.5463 34.3782 19.3683ZM27.7501 27.7121C27.7294 27.8969 27.6417 28.0677 27.5034 28.1921C27.3652 28.3166 27.1861 28.3859 27.0001 28.3871H26.9251C24.9801 28.1902 23.0201 28.1902 21.0751 28.3871C20.8775 28.4081 20.6795 28.3498 20.5249 28.225C20.3702 28.1002 20.2713 27.9191 20.2501 27.7214C20.2317 27.5228 20.2922 27.325 20.4185 27.1706C20.5448 27.0162 20.7268 26.9178 20.9251 26.8964C22.9694 26.6808 25.0308 26.6808 27.0751 26.8964C27.2716 26.9178 27.4521 27.0149 27.5782 27.1672C27.7042 27.3195 27.7659 27.515 27.7501 27.7121Z" fill="white"/>
</svg>
