<svg width="24" height="25" viewBox="0 0 24 25" fill="none" xmlns="http://www.w3.org/2000/svg">
<path d="M12 2.65234C14.717 2.65234 15.056 2.66234 16.122 2.71234C17.187 2.76234 17.912 2.92934 18.55 3.17734C19.21 3.43134 19.766 3.77534 20.322 4.33034C20.8305 4.83024 21.224 5.43493 21.475 6.10234C21.722 6.73934 21.89 7.46534 21.94 8.53034C21.987 9.59634 22 9.93534 22 12.6523C22 15.3693 21.99 15.7083 21.94 16.7743C21.89 17.8393 21.722 18.5643 21.475 19.2023C21.2247 19.8701 20.8311 20.475 20.322 20.9743C19.822 21.4827 19.2173 21.8761 18.55 22.1273C17.913 22.3743 17.187 22.5423 16.122 22.5923C15.056 22.6393 14.717 22.6523 12 22.6523C9.283 22.6523 8.944 22.6423 7.878 22.5923C6.813 22.5423 6.088 22.3743 5.45 22.1273C4.78233 21.8768 4.17753 21.4833 3.678 20.9743C3.16941 20.4745 2.77593 19.8698 2.525 19.2023C2.277 18.5653 2.11 17.8393 2.06 16.7743C2.013 15.7083 2 15.3693 2 12.6523C2 9.93534 2.01 9.59634 2.06 8.53034C2.11 7.46434 2.277 6.74034 2.525 6.10234C2.77524 5.43452 3.1688 4.82966 3.678 4.33034C4.17767 3.82157 4.78243 3.42807 5.45 3.17734C6.088 2.92934 6.812 2.76234 7.878 2.71234C8.944 2.66534 9.283 2.65234 12 2.65234ZM12 7.65234C10.6739 7.65234 9.40215 8.17913 8.46447 9.11681C7.52678 10.0545 7 11.3263 7 12.6523C7 13.9784 7.52678 15.2502 8.46447 16.1879C9.40215 17.1256 10.6739 17.6523 12 17.6523C13.3261 17.6523 14.5979 17.1256 15.5355 16.1879C16.4732 15.2502 17 13.9784 17 12.6523C17 11.3263 16.4732 10.0545 15.5355 9.11681C14.5979 8.17913 13.3261 7.65234 12 7.65234ZM18.5 7.40234C18.5 7.07082 18.3683 6.75288 18.1339 6.51846C17.8995 6.28404 17.5815 6.15234 17.25 6.15234C16.9185 6.15234 16.6005 6.28404 16.3661 6.51846C16.1317 6.75288 16 7.07082 16 7.40234C16 7.73386 16.1317 8.05181 16.3661 8.28623C16.6005 8.52065 16.9185 8.65234 17.25 8.65234C17.5815 8.65234 17.8995 8.52065 18.1339 8.28623C18.3683 8.05181 18.5 7.73386 18.5 7.40234ZM12 9.65234C12.7956 9.65234 13.5587 9.96841 14.1213 10.531C14.6839 11.0936 15 11.8567 15 12.6523C15 13.448 14.6839 14.2111 14.1213 14.7737C13.5587 15.3363 12.7956 15.6523 12 15.6523C11.2044 15.6523 10.4413 15.3363 9.87868 14.7737C9.31607 14.2111 9 13.448 9 12.6523C9 11.8567 9.31607 11.0936 9.87868 10.531C10.4413 9.96841 11.2044 9.65234 12 9.65234Z" fill="#050038"/>
</svg>
