<svg width="25" height="25" viewBox="0 0 25 25" fill="none" xmlns="http://www.w3.org/2000/svg">
<path d="M7.20606 5.29379C7.20579 5.82422 6.99482 6.33282 6.61956 6.70771C6.2443 7.08259 5.73549 7.29305 5.20505 7.29279C4.67462 7.29252 4.16602 7.08155 3.79113 6.70629C3.41625 6.33103 3.20579 5.82222 3.20605 5.29179C3.20632 4.76135 3.41729 4.25275 3.79255 3.87787C4.16781 3.50298 4.67662 3.29252 5.20705 3.29279C5.73749 3.29305 6.24609 3.50402 6.62098 3.87928C6.99586 4.25454 7.20632 4.76335 7.20606 5.29379ZM7.26606 8.77379H3.26605V21.2938H7.26606V8.77379ZM13.5861 8.77379H9.60606V21.2938H13.5461V14.7238C13.5461 11.0638 18.3161 10.7238 18.3161 14.7238V21.2938H22.2661V13.3638C22.2661 7.19379 15.2061 7.42379 13.5461 10.4538L13.5861 8.77379Z" fill="#050038"/>
</svg>
