<svg width="25" height="25" viewBox="0 0 25 25" fill="none" xmlns="http://www.w3.org/2000/svg">
<g opacity="0.3">
<path d="M12.25 14.75C12.8713 14.75 13.375 14.2463 13.375 13.625C13.375 13.0037 12.8713 12.5 12.25 12.5C11.6287 12.5 11.125 13.0037 11.125 13.625C11.125 14.2463 11.6287 14.75 12.25 14.75Z" fill="#050038"/>
<path d="M19.75 8H16.375V5.375C16.375 4.28098 15.9404 3.23177 15.1668 2.45818C14.3932 1.6846 13.344 1.25 12.25 1.25C11.156 1.25 10.1068 1.6846 9.33318 2.45818C8.5596 3.23177 8.125 4.28098 8.125 5.375V8H4.75C4.35218 8 3.97064 8.15804 3.68934 8.43934C3.40804 8.72064 3.25 9.10218 3.25 9.5V20C3.25 20.3978 3.40804 20.7794 3.68934 21.0607C3.97064 21.342 4.35218 21.5 4.75 21.5H19.75C20.1478 21.5 20.5294 21.342 20.8107 21.0607C21.092 20.7794 21.25 20.3978 21.25 20V9.5C21.25 9.10218 21.092 8.72064 20.8107 8.43934C20.5294 8.15804 20.1478 8 19.75 8ZM13 16.1375V17.75C13 17.9489 12.921 18.1397 12.7803 18.2803C12.6397 18.421 12.4489 18.5 12.25 18.5C12.0511 18.5 11.8603 18.421 11.7197 18.2803C11.579 18.1397 11.5 17.9489 11.5 17.75V16.1375C10.8958 15.9573 10.3765 15.5657 10.0373 15.0342C9.69806 14.5027 9.56147 13.8669 9.6525 13.243C9.74353 12.619 10.0561 12.0487 10.5331 11.6363C11.01 11.2239 11.6195 10.9969 12.25 10.9969C12.8805 10.9969 13.49 11.2239 13.9669 11.6363C14.4439 12.0487 14.7565 12.619 14.8475 13.243C14.9385 13.8669 14.8019 14.5027 14.4627 15.0342C14.1235 15.5657 13.6042 15.9573 13 16.1375ZM14.875 8H9.625V5.375C9.625 4.67881 9.90156 4.01113 10.3938 3.51884C10.8861 3.02656 11.5538 2.75 12.25 2.75C12.9462 2.75 13.6139 3.02656 14.1062 3.51884C14.5984 4.01113 14.875 4.67881 14.875 5.375V8Z" fill="#050038"/>
</g>
</svg>
