<svg width="137" height="42" viewBox="0 0 137 42" fill="none" xmlns="http://www.w3.org/2000/svg">
<path d="M134.285 28.1887H136.826V13.2007H134.285V28.1887ZM46.1992 28.1887H48.74V23.6837C48.74 21.2284 50.0851 20.0541 51.9854 20.0541C53.928 20.0541 54.7396 20.9295 54.7396 22.8938V28.1887H57.3016V22.1465C57.3016 19.0935 55.6363 17.1718 52.8821 17.1718C51.1739 17.1718 49.7006 17.8978 48.6759 19.264V17.5133H46.1992V28.1887V28.1887ZM58.1332 24.858C58.1332 27.0998 60.1617 28.5304 62.6809 28.5304C64.6453 28.5304 66.4599 27.719 67.25 26.5019V28.1887H69.7907V21.9116C69.7907 18.2181 67.9975 17.1718 64.4102 17.1718C60.482 17.1718 58.5604 18.5169 58.5604 21.2498H61.101C61.101 20.2249 61.891 19.6912 64.3036 19.6912C66.4599 19.6912 67.25 20.1823 67.25 21.2284L62.5101 21.8262C59.7774 22.1679 58.2187 22.6588 58.1332 24.858V24.858ZM67.25 24.0254C66.5668 25.1568 64.8802 26.1176 62.8305 26.1176C61.635 26.1176 60.9729 25.7332 60.9729 25.0288C60.9729 24.5163 61.3999 24.196 62.2325 24.0468L67.25 23.2781V24.0254ZM71.4126 28.1887H73.9532V23.6837C73.9532 21.2284 75.2983 20.0541 77.1986 20.0541C79.1414 20.0541 79.9528 20.9295 79.9528 22.8938V28.1887H82.5148V22.1465C82.5148 19.0935 80.8496 17.1718 78.0953 17.1718C76.3871 17.1718 74.9138 17.8978 73.8891 19.264V17.5133H71.4126V28.1887ZM83.3039 22.8509C83.3039 25.9894 85.8019 28.5304 89.4102 28.5304C92.997 28.5945 95.6017 25.9469 95.5376 22.8509C95.6017 19.7553 92.997 17.1077 89.4102 17.1718C85.8019 17.1718 83.3039 19.7124 83.3039 22.8509ZM92.9543 22.8509C92.9543 24.6444 91.5239 25.6481 89.4102 25.6481C87.2966 25.6481 85.8874 24.6444 85.8874 22.8509C85.8874 21.0575 87.2966 20.0541 89.4102 20.0541C91.5239 20.0541 92.9543 21.0575 92.9543 22.8509ZM95.8142 22.8509C95.8142 26.1176 98.0347 28.5304 101.045 28.5304C102.988 28.5304 104.333 27.8683 105.102 26.5233V28.1887H107.621V13.2007H105.059V18.9227C104.291 17.7484 103.031 17.1718 101.28 17.1718C98.0347 17.1718 95.8142 19.6485 95.8142 22.8509V22.8509ZM105.08 22.8509C105.08 24.7514 103.821 25.9043 101.707 25.9043C99.5934 25.9043 98.3977 24.7939 98.3977 22.8509C98.3977 20.9508 99.5934 19.8406 101.707 19.8406C103.821 19.8406 105.08 20.9508 105.08 22.8509ZM120.687 22.6588C120.687 19.6273 118.359 17.1718 114.794 17.1718C111.186 17.1718 108.645 19.6485 108.645 22.8509C108.645 25.9255 110.951 28.5304 114.944 28.5304C118.125 28.5304 120.495 26.9077 120.623 24.5377H118.06C117.89 25.3064 116.587 25.7973 114.901 25.7973C112.936 25.7973 111.613 25.0288 111.25 23.641H120.687V22.6588V22.6588ZM111.271 21.9116C111.634 20.6307 112.851 19.9047 114.708 19.9047C116.822 19.9047 118.103 20.6946 118.167 21.9116H111.271ZM121.006 24.858C121.006 27.0998 123.034 28.5304 125.554 28.5304C127.518 28.5304 129.333 27.719 130.123 26.5019V28.1887H132.663V21.9116C132.663 18.2181 130.87 17.1718 127.283 17.1718C123.355 17.1718 121.433 18.5169 121.433 21.2498H123.974C123.974 20.2249 124.764 19.6912 127.176 19.6912C129.333 19.6912 130.123 20.1823 130.123 21.2284L125.383 21.8262C122.65 22.1679 121.091 22.6588 121.006 24.858ZM130.123 24.0254C129.439 25.1568 127.753 26.1176 125.703 26.1176C124.508 26.1176 123.846 25.7332 123.846 25.0288C123.846 24.5163 124.272 24.196 125.105 24.0468L130.123 23.2781V24.0254Z" fill="#37323C"/>
<path fill-rule="evenodd" clip-rule="evenodd" d="M1.66571 7.50139C1.85111 3.32786 5.32455 0 9.58293 0C13.9602 0 17.5085 3.51571 17.5085 7.85212C17.5085 8.90434 17.2987 9.90804 16.9202 10.8258C14.8095 16.6393 12.6114 23.0982 10.3343 28.7683C9.67738 30.917 7.66467 32.4815 5.28118 32.4815C2.3639 32.4815 0 30.1386 0 27.2488C0 21.8283 1.15712 13.3309 1.66711 7.50139H1.66571Z" fill="url(#paint0_radial_120_616)"/>
<path fill-rule="evenodd" clip-rule="evenodd" d="M32.3945 29.7331C33.2592 30.9912 33.765 32.5113 33.765 34.1479C33.765 38.485 30.2167 42 25.8401 42C22.8396 42 20.2287 40.3475 18.8834 37.9117C13.7163 30.393 7.56901 20.1668 2.95174 12.1525C2.13392 10.9173 1.6582 9.43946 1.6582 7.85213C1.6582 3.51502 5.2065 0 9.58312 0C12.5347 0 15.1084 1.59843 16.4726 3.96904C21.5705 11.6694 28.0011 21.775 32.3945 29.7331V29.7331Z" fill="url(#paint1_radial_120_616)"/>
<path fill-rule="evenodd" clip-rule="evenodd" d="M33.7853 34.69C33.4992 38.7692 30.0691 41.9896 25.88 41.9896C21.5027 41.9896 17.9551 38.4739 17.9551 34.1375C17.9551 33.3161 18.0831 32.5238 18.3203 31.7801C19.9076 25.7094 21.9623 18.5844 23.926 12.635C24.5844 10.0606 26.9385 8.15576 29.7417 8.15576C33.0549 8.15576 35.7407 10.8168 35.7407 14.0996C35.7407 14.3596 35.7239 14.6146 35.691 14.8656C35.274 21.4617 34.5863 28.1278 33.786 34.69H33.7853Z" fill="url(#paint2_radial_120_616)"/>
<defs>
<radialGradient id="paint0_radial_120_616" cx="0" cy="0" r="1" gradientUnits="userSpaceOnUse" gradientTransform="translate(2.99686 10.3826) rotate(74.728) scale(22.6185 20.8095)">
<stop stop-color="#E782F7"/>
<stop offset="0.678431" stop-color="#DE5CB6"/>
<stop offset="1" stop-color="#D63676"/>
</radialGradient>
<radialGradient id="paint1_radial_120_616" cx="0" cy="0" r="1" gradientUnits="userSpaceOnUse" gradientTransform="translate(18.3622 34.851) rotate(-117.515) scale(31.1438 28.837)">
<stop stop-color="#FF7D4B"/>
<stop offset="0.658824" stop-color="#F380A1"/>
<stop offset="1" stop-color="#E782F7"/>
</radialGradient>
<radialGradient id="paint2_radial_120_616" cx="0" cy="0" r="1" gradientUnits="userSpaceOnUse" gradientTransform="translate(31.9921 12.2379) rotate(123.983) scale(24.8014 37.9189)">
<stop stop-color="#FFDB13"/>
<stop offset="0.541176" stop-color="#FFAC2F"/>
<stop offset="1" stop-color="#FF7D4B"/>
</radialGradient>
</defs>
</svg>
