<svg width="24" height="25" viewBox="0 0 24 25" fill="none" xmlns="http://www.w3.org/2000/svg">
<path d="M9.366 11.43C10.3043 13.0785 11.6695 14.4437 13.318 15.382L14.202 14.144C14.3442 13.945 14.5543 13.8049 14.7928 13.7504C15.0313 13.6958 15.2814 13.7306 15.496 13.848C16.9103 14.621 18.4722 15.0858 20.079 15.212C20.3298 15.2319 20.5638 15.3456 20.7345 15.5304C20.9052 15.7152 21 15.9575 21 16.209V20.671C21.0001 20.9186 20.9083 21.1575 20.7424 21.3413C20.5765 21.5251 20.3483 21.6408 20.102 21.666C19.572 21.721 19.038 21.748 18.5 21.748C9.94 21.748 3 14.808 3 6.24805C3 5.71005 3.027 5.17605 3.082 4.64605C3.10725 4.39974 3.22298 4.17157 3.40679 4.00568C3.5906 3.83979 3.82941 3.74799 4.077 3.74805H8.539C8.79056 3.74802 9.0329 3.8428 9.21768 4.0135C9.40247 4.1842 9.51613 4.41827 9.536 4.66905C9.66222 6.27584 10.1271 7.83773 10.9 9.25205C11.0175 9.46661 11.0522 9.71679 10.9977 9.95524C10.9431 10.1937 10.8031 10.4039 10.604 10.546L9.366 11.43ZM6.844 10.773L8.744 9.41605C8.20478 8.25214 7.83535 7.01689 7.647 5.74805H5.01C5.004 5.91405 5.001 6.08105 5.001 6.24805C5 13.704 11.044 19.748 18.5 19.748C18.667 19.748 18.834 19.745 19 19.738V17.101C17.7312 16.9127 16.4959 16.5433 15.332 16.004L13.975 17.904C13.4287 17.6918 12.898 17.4411 12.387 17.154L12.329 17.121C10.3676 16.0048 8.74328 14.3805 7.627 12.419L7.594 12.361C7.30691 11.85 7.05628 11.3194 6.844 10.773Z" fill="#050038"/>
</svg>
