<svg width="48" height="49" viewBox="0 0 48 49" fill="none" xmlns="http://www.w3.org/2000/svg">
<circle cx="24" cy="24.4775" r="24" fill="#F24E1E"/>
<path d="M22.3593 17.2775C22.1831 17.0983 21.9639 16.9671 21.7227 16.8965C21.4815 16.826 21.2262 16.8183 20.9811 16.8744C20.7339 16.9291 20.5045 17.0454 20.3144 17.2126C20.1242 17.3798 19.9795 17.5924 19.8936 17.8307L14.8405 31.715C14.7617 31.941 14.7378 32.1825 14.7707 32.4195C14.8036 32.6566 14.8924 32.8824 15.0297 33.0784C15.1671 33.2743 15.3491 33.4348 15.5607 33.5466C15.7723 33.6584 16.0075 33.7183 16.2468 33.7213C16.4221 33.7215 16.5963 33.693 16.7624 33.6369L30.6468 28.5838C30.885 28.498 31.0976 28.3532 31.2648 28.1631C31.432 27.9729 31.5484 27.7435 31.603 27.4963C31.6591 27.2513 31.6515 26.996 31.5809 26.7547C31.5103 26.5135 31.3792 26.2943 31.1999 26.1182L22.3593 17.2775ZM17.9811 27.4588L19.7811 22.5088L25.9686 28.6963L21.0186 30.4963L17.9811 27.4588ZM26.9999 19.2275C27.0137 18.7203 27.1351 18.2218 27.3561 17.765C27.853 16.7713 28.7905 16.2275 29.9999 16.2275C30.628 16.2275 31.0311 16.0119 31.2843 15.5525C31.4133 15.2924 31.4867 15.0082 31.4999 14.7182C31.4999 14.6201 31.5193 14.523 31.5572 14.4326C31.595 14.3421 31.6504 14.26 31.7201 14.1911C31.7899 14.1222 31.8726 14.0679 31.9636 14.0312C32.0545 13.9945 32.1518 13.9763 32.2499 13.9775C32.4488 13.9775 32.6396 14.0566 32.7802 14.1972C32.9209 14.3379 32.9999 14.5286 32.9999 14.7275C32.9999 15.9369 32.203 17.7275 29.9999 17.7275C29.3718 17.7275 28.9686 17.9432 28.7155 18.4025C28.5865 18.6627 28.513 18.9468 28.4999 19.2369C28.4999 19.335 28.4804 19.432 28.4426 19.5225C28.4048 19.613 28.3494 19.6951 28.2797 19.764C28.2099 19.8329 28.1271 19.8872 28.0362 19.9239C27.9453 19.9605 27.8479 19.9788 27.7499 19.9775C27.551 19.9775 27.3602 19.8985 27.2196 19.7579C27.0789 19.6172 26.9999 19.4265 26.9999 19.2275ZM24.7499 16.2275V13.9775C24.7499 13.7786 24.8289 13.5879 24.9696 13.4472C25.1102 13.3066 25.301 13.2275 25.4999 13.2275C25.6988 13.2275 25.8896 13.3066 26.0302 13.4472C26.1709 13.5879 26.2499 13.7786 26.2499 13.9775V16.2275C26.2499 16.4265 26.1709 16.6172 26.0302 16.7579C25.8896 16.8985 25.6988 16.9775 25.4999 16.9775C25.301 16.9775 25.1102 16.8985 24.9696 16.7579C24.8289 16.6172 24.7499 16.4265 24.7499 16.2275ZM34.2843 23.9432C34.4251 24.0854 34.5041 24.2774 34.5041 24.4775C34.5041 24.6777 34.4251 24.8697 34.2843 25.0119C34.1409 25.1505 33.9493 25.228 33.7499 25.228C33.5505 25.228 33.3589 25.1505 33.2155 25.0119L31.7155 23.5119C31.5959 23.3662 31.5348 23.1812 31.544 22.9929C31.5533 22.8046 31.6322 22.6265 31.7655 22.4932C31.8989 22.3599 32.077 22.2809 32.2653 22.2717C32.4535 22.2624 32.6385 22.3236 32.7843 22.4432L34.2843 23.9432ZM34.7343 19.94L32.4843 20.69C32.4089 20.7161 32.3296 20.7288 32.2499 20.7275C32.0715 20.7276 31.899 20.6641 31.7632 20.5483C31.6275 20.4326 31.5374 20.2723 31.5092 20.0962C31.4809 19.9201 31.5164 19.7397 31.6092 19.5873C31.702 19.435 31.8461 19.3207 32.0155 19.265L34.2655 18.515C34.3591 18.4843 34.4578 18.4722 34.556 18.4796C34.6542 18.487 34.7501 18.5136 34.838 18.558C34.9259 18.6024 35.0042 18.6637 35.0685 18.7383C35.1327 18.813 35.1816 18.8996 35.2124 18.9932C35.2432 19.0867 35.2552 19.1854 35.2478 19.2837C35.2405 19.3819 35.2138 19.4777 35.1694 19.5656C35.125 19.6536 35.0638 19.7319 34.9891 19.7961C34.9144 19.8604 34.8278 19.9093 34.7343 19.94Z" fill="white"/>
</svg>
