<svg width="133" height="32" viewBox="0 0 133 32" fill="none" xmlns="http://www.w3.org/2000/svg">
<path d="M12.8496 0.368388C13.7004 -0.122796 14.7486 -0.122796 15.5994 0.368388L26.8645 6.87227L19.075 11.4333C17.8693 10.2228 16.2006 9.47368 14.357 9.47368C12.4398 9.47368 10.7117 10.284 9.49669 11.5808L1.51953 6.90983L12.8496 0.368388Z" fill="white"/>
<path d="M7.97867 14.2151L0 9.54321V22.6027L7.94895 17.9483C7.78575 17.371 7.69842 16.762 7.69842 16.1326C7.69842 15.466 7.79636 14.8223 7.97867 14.2151Z" fill="white"/>
<path d="M9.42584 20.6069L1.64551 25.1627L12.8502 31.6317C13.701 32.1228 14.7492 32.1228 15.6 31.6317L26.7397 25.2001L19.1499 20.756C17.9389 22.0109 16.2394 22.7916 14.3576 22.7916C12.4025 22.7916 10.6441 21.9488 9.42584 20.6069Z" fill="white"/>
<path d="M20.7075 18.1448L28.4497 22.6783C28.4499 22.6607 28.4502 22.6431 28.4502 22.6255V9.46777L20.6748 14.0206C20.8967 14.6843 21.0169 15.3945 21.0169 16.1328C21.0169 16.8341 20.9085 17.51 20.7075 18.1448Z" fill="white"/>
<path d="M41.8281 28V7.14001H50.3961C51.8335 7.14001 53.1028 7.39201 54.2041 7.89601C55.3241 8.40001 56.2015 9.14668 56.8361 10.136C57.4708 11.1253 57.7881 12.348 57.7881 13.804C57.7881 15.2227 57.4615 16.436 56.8081 17.444C56.1548 18.4333 55.2775 19.18 54.1761 19.684L58.9361 28H54.0641L49.8361 20.44H46.1681V28H41.8281ZM46.1681 16.66H50.4241C51.3388 16.66 52.0668 16.3987 52.6081 15.876C53.1681 15.3533 53.4481 14.6627 53.4481 13.804C53.4481 12.9267 53.1681 12.2267 52.6081 11.704C52.0668 11.1813 51.3388 10.92 50.4241 10.92H46.1681V16.66Z" fill="white"/>
<path d="M67.2526 28.336C65.7406 28.336 64.3592 27.9907 63.1086 27.3C61.8766 26.6093 60.8966 25.6667 60.1686 24.472C59.4406 23.2587 59.0766 21.8867 59.0766 20.356C59.0766 18.8067 59.4406 17.4347 60.1686 16.24C60.8966 15.0453 61.8766 14.1027 63.1086 13.412C64.3592 12.7213 65.7406 12.376 67.2526 12.376C68.7646 12.376 70.1366 12.7213 71.3686 13.412C72.6192 14.1027 73.6086 15.0453 74.3366 16.24C75.0646 17.4347 75.4286 18.8067 75.4286 20.356C75.4286 21.8867 75.0646 23.2587 74.3366 24.472C73.6086 25.6667 72.6192 26.6093 71.3686 27.3C70.1366 27.9907 68.7646 28.336 67.2526 28.336ZM67.2526 24.556C68.4099 24.556 69.3339 24.164 70.0246 23.38C70.7339 22.596 71.0886 21.588 71.0886 20.356C71.0886 19.1427 70.7339 18.144 70.0246 17.36C69.3339 16.5573 68.4099 16.156 67.2526 16.156C66.1139 16.156 65.1899 16.5573 64.4806 17.36C63.7712 18.144 63.4166 19.1427 63.4166 20.356C63.4166 21.588 63.7712 22.596 64.4806 23.38C65.1899 24.164 66.1139 24.556 67.2526 24.556Z" fill="white"/>
<path d="M82.7092 28.336C81.5519 28.336 80.5252 28.0747 79.6292 27.552C78.7519 27.0107 78.0612 26.264 77.5572 25.312C77.0719 24.36 76.8292 23.2587 76.8292 22.008V12.712H81.0292V21.644C81.0292 22.5213 81.2906 23.2307 81.8132 23.772C82.3359 24.2947 83.0079 24.556 83.8292 24.556C84.6505 24.556 85.3226 24.2947 85.8452 23.772C86.3679 23.2307 86.6292 22.5213 86.6292 21.644V12.712H90.8292V28H86.9092V26.152C86.5172 26.8613 85.9572 27.4027 85.2292 27.776C84.5012 28.1493 83.6612 28.336 82.7092 28.336Z" fill="white"/>
<path d="M93.3448 28V12.712H97.2648V14.588C97.6568 13.8413 98.2262 13.2907 98.9728 12.936C99.7195 12.5627 100.578 12.376 101.549 12.376C102.706 12.376 103.714 12.6187 104.573 13.104C105.45 13.5893 106.132 14.2707 106.617 15.148C107.102 16.0067 107.345 17.0147 107.345 18.172V28H103.145V19.068C103.145 18.1907 102.884 17.4907 102.361 16.968C101.838 16.4267 101.166 16.156 100.345 16.156C99.5235 16.156 98.8515 16.4267 98.3288 16.968C97.8062 17.4907 97.5448 18.1907 97.5448 19.068V28H93.3448Z" fill="white"/>
<path d="M116.524 28.336C115.05 28.336 113.724 27.9813 112.548 27.272C111.372 26.5627 110.439 25.6013 109.748 24.388C109.076 23.1747 108.74 21.8307 108.74 20.356C108.74 18.8627 109.086 17.5187 109.776 16.324C110.467 15.1107 111.4 14.1493 112.576 13.44C113.752 12.7307 115.059 12.376 116.496 12.376C118.344 12.376 119.81 12.9173 120.892 14V7.14001H125.092V28H121.172V26.544C120.631 27.1227 119.95 27.5707 119.128 27.888C118.326 28.1867 117.458 28.336 116.524 28.336ZM117.028 24.556C118.167 24.556 119.091 24.1733 119.8 23.408C120.528 22.624 120.892 21.6067 120.892 20.356C120.892 19.124 120.528 18.116 119.8 17.332C119.091 16.548 118.167 16.156 117.028 16.156C115.89 16.156 114.947 16.5573 114.2 17.36C113.454 18.144 113.08 19.1427 113.08 20.356C113.08 21.588 113.454 22.596 114.2 23.38C114.947 24.164 115.89 24.556 117.028 24.556Z" fill="white"/>
<path d="M128.041 28V23.8H132.241V28H128.041Z" fill="white"/>
</svg>
