<svg width="25" height="25" viewBox="0 0 25 25" fill="none" xmlns="http://www.w3.org/2000/svg">
<path d="M22.4289 5.93535C21.6655 6.27304 20.8559 6.49482 20.0269 6.59335C20.9007 6.07078 21.5546 5.24836 21.8669 4.27935C21.0469 4.76735 20.1479 5.10935 19.2109 5.29435C18.5815 4.62092 17.7473 4.17431 16.8379 4.02393C15.9284 3.87355 14.9948 4.02784 14.1822 4.4628C13.3695 4.89776 12.7233 5.58903 12.344 6.42914C11.9647 7.26925 11.8736 8.21113 12.0849 9.10835C10.422 9.025 8.79523 8.59287 7.31019 7.84001C5.82514 7.08715 4.51503 6.03039 3.4649 4.73835C3.09319 5.3768 2.89785 6.10257 2.8989 6.84135C2.8989 8.29135 3.6369 9.57235 4.7589 10.3223C4.09491 10.3014 3.44553 10.1221 2.8649 9.79935V9.85135C2.8651 10.817 3.19927 11.753 3.81075 12.5004C4.42222 13.2478 5.27338 13.7608 6.2199 13.9523C5.60351 14.1194 4.95721 14.144 4.3299 14.0243C4.59677 14.8556 5.11691 15.5825 5.81749 16.1035C6.51808 16.6244 7.36403 16.9131 8.2369 16.9293C7.36938 17.6107 6.37608 18.1143 5.31378 18.4115C4.25148 18.7087 3.14103 18.7936 2.0459 18.6613C3.9576 19.8908 6.18299 20.5435 8.4559 20.5413C16.1489 20.5413 20.3559 14.1683 20.3559 8.64135C20.3559 8.46135 20.3509 8.27935 20.3429 8.10135C21.1618 7.50951 21.8685 6.77637 22.4299 5.93635L22.4289 5.93535Z" fill="#050038"/>
</svg>
